<mxfile host="Electron" modified="2024-01-31T08:43:14.754Z" agent="Mozilla/5.0 (Windows NT 10.0; Win64; x64) AppleWebKit/537.36 (KHTML, like Gecko) draw.io/23.0.2 Chrome/120.0.6099.109 Electron/28.1.0 Safari/537.36" etag="FO0mwIPRSKUFIFZCEiG6" version="23.0.2" type="device">
  <diagram name="第 1 页" id="umo4NLVK-wTXoeaG-GOA">
    <mxGraphModel dx="958" dy="689" grid="1" gridSize="10" guides="1" tooltips="1" connect="1" arrows="1" fold="1" page="1" pageScale="1" pageWidth="827" pageHeight="1169" math="1" shadow="0">
      <root>
        <mxCell id="0" />
        <mxCell id="1" parent="0" />
        <mxCell id="Dmuagicg-4Nv_yLh7rca-1" value="" style="group;flipH=0;" vertex="1" connectable="0" parent="1">
          <mxGeometry x="27" y="80" width="352" height="300" as="geometry" />
        </mxCell>
        <mxCell id="Dmuagicg-4Nv_yLh7rca-2" value="A" style="ellipse;whiteSpace=wrap;html=1;fontFamily=Times New Roman;fontSize=19;" vertex="1" parent="Dmuagicg-4Nv_yLh7rca-1">
          <mxGeometry x="185" width="40" height="40" as="geometry" />
        </mxCell>
        <mxCell id="Dmuagicg-4Nv_yLh7rca-3" value="B" style="ellipse;whiteSpace=wrap;html=1;fontFamily=Times New Roman;fontSize=19;" vertex="1" parent="Dmuagicg-4Nv_yLh7rca-1">
          <mxGeometry x="115" y="70" width="40" height="40" as="geometry" />
        </mxCell>
        <mxCell id="Dmuagicg-4Nv_yLh7rca-4" style="rounded=0;orthogonalLoop=1;jettySize=auto;html=1;exitX=0;exitY=1;exitDx=0;exitDy=0;endArrow=none;endFill=0;" edge="1" parent="Dmuagicg-4Nv_yLh7rca-1" source="Dmuagicg-4Nv_yLh7rca-2" target="Dmuagicg-4Nv_yLh7rca-3">
          <mxGeometry relative="1" as="geometry" />
        </mxCell>
        <mxCell id="Dmuagicg-4Nv_yLh7rca-5" value="" style="group" vertex="1" connectable="0" parent="Dmuagicg-4Nv_yLh7rca-1">
          <mxGeometry y="150" width="105" height="120" as="geometry" />
        </mxCell>
        <mxCell id="Dmuagicg-4Nv_yLh7rca-6" value="&lt;font style=&quot;font-size: 19px;&quot; face=&quot;Times New Roman&quot;&gt;h-1&lt;/font&gt;" style="text;html=1;strokeColor=none;fillColor=none;align=center;verticalAlign=middle;whiteSpace=wrap;rounded=0;fontSize=11;fontFamily=Helvetica;fontColor=default;" vertex="1" parent="Dmuagicg-4Nv_yLh7rca-5">
          <mxGeometry y="25" width="60" height="30" as="geometry" />
        </mxCell>
        <mxCell id="Dmuagicg-4Nv_yLh7rca-7" value="&lt;font style=&quot;font-size: 23px;&quot;&gt;$$ \Bigg \{$$&lt;/font&gt;" style="text;html=1;strokeColor=none;fillColor=none;align=center;verticalAlign=middle;whiteSpace=wrap;rounded=0;fontSize=11;fontFamily=Helvetica;fontColor=default;" vertex="1" parent="Dmuagicg-4Nv_yLh7rca-5">
          <mxGeometry x="24" y="25" width="60" height="30" as="geometry" />
        </mxCell>
        <mxCell id="Dmuagicg-4Nv_yLh7rca-8" value="" style="group" vertex="1" connectable="0" parent="Dmuagicg-4Nv_yLh7rca-5">
          <mxGeometry x="65" width="40" height="120" as="geometry" />
        </mxCell>
        <mxCell id="Dmuagicg-4Nv_yLh7rca-9" value="&lt;font style=&quot;font-size: 12px;&quot;&gt;$$B_L$$&lt;/font&gt;" style="rounded=0;whiteSpace=wrap;html=1;direction=west;" vertex="1" parent="Dmuagicg-4Nv_yLh7rca-8">
          <mxGeometry width="40" height="80" as="geometry" />
        </mxCell>
        <mxCell id="Dmuagicg-4Nv_yLh7rca-10" value="" style="rounded=0;whiteSpace=wrap;html=1;fontFamily=Helvetica;fontSize=11;fontColor=default;fillStyle=auto;fillColor=#525252;gradientColor=none;container=0;" vertex="1" parent="Dmuagicg-4Nv_yLh7rca-5">
          <mxGeometry x="65" y="80" width="40" height="40" as="geometry" />
        </mxCell>
        <mxCell id="Dmuagicg-4Nv_yLh7rca-11" style="edgeStyle=none;shape=connector;rounded=0;orthogonalLoop=1;jettySize=auto;html=1;exitX=0;exitY=1;exitDx=0;exitDy=0;entryX=0.5;entryY=1;entryDx=0;entryDy=0;labelBackgroundColor=default;strokeColor=default;align=center;verticalAlign=middle;fontFamily=Helvetica;fontSize=11;fontColor=default;endArrow=none;endFill=0;" edge="1" parent="Dmuagicg-4Nv_yLh7rca-1" source="Dmuagicg-4Nv_yLh7rca-3" target="Dmuagicg-4Nv_yLh7rca-9">
          <mxGeometry relative="1" as="geometry" />
        </mxCell>
        <mxCell id="Dmuagicg-4Nv_yLh7rca-12" value="" style="group" vertex="1" connectable="0" parent="Dmuagicg-4Nv_yLh7rca-1">
          <mxGeometry x="98" y="150" width="105" height="120" as="geometry" />
        </mxCell>
        <mxCell id="Dmuagicg-4Nv_yLh7rca-13" value="&lt;font style=&quot;font-size: 19px;&quot; face=&quot;Times New Roman&quot;&gt;h-1&lt;/font&gt;" style="text;html=1;strokeColor=none;fillColor=none;align=center;verticalAlign=middle;whiteSpace=wrap;rounded=0;fontSize=11;fontFamily=Helvetica;fontColor=default;" vertex="1" parent="Dmuagicg-4Nv_yLh7rca-12">
          <mxGeometry y="25" width="60" height="30" as="geometry" />
        </mxCell>
        <mxCell id="Dmuagicg-4Nv_yLh7rca-14" value="&lt;font style=&quot;font-size: 23px;&quot;&gt;$$ \Bigg \{$$&lt;/font&gt;" style="text;html=1;strokeColor=none;fillColor=none;align=center;verticalAlign=middle;whiteSpace=wrap;rounded=0;fontSize=11;fontFamily=Helvetica;fontColor=default;" vertex="1" parent="Dmuagicg-4Nv_yLh7rca-12">
          <mxGeometry x="24" y="25" width="60" height="30" as="geometry" />
        </mxCell>
        <mxCell id="Dmuagicg-4Nv_yLh7rca-15" value="" style="group" vertex="1" connectable="0" parent="Dmuagicg-4Nv_yLh7rca-12">
          <mxGeometry x="65" width="40" height="120" as="geometry" />
        </mxCell>
        <mxCell id="Dmuagicg-4Nv_yLh7rca-16" value="&lt;font style=&quot;font-size: 12px;&quot;&gt;$$B_R$$&lt;/font&gt;" style="rounded=0;whiteSpace=wrap;html=1;direction=west;" vertex="1" parent="Dmuagicg-4Nv_yLh7rca-15">
          <mxGeometry width="40" height="80" as="geometry" />
        </mxCell>
        <mxCell id="Dmuagicg-4Nv_yLh7rca-17" style="edgeStyle=none;shape=connector;rounded=0;orthogonalLoop=1;jettySize=auto;html=1;exitX=1;exitY=1;exitDx=0;exitDy=0;entryX=0.5;entryY=1;entryDx=0;entryDy=0;labelBackgroundColor=default;strokeColor=default;align=center;verticalAlign=middle;fontFamily=Helvetica;fontSize=11;fontColor=default;endArrow=none;endFill=0;" edge="1" parent="Dmuagicg-4Nv_yLh7rca-1" source="Dmuagicg-4Nv_yLh7rca-3" target="Dmuagicg-4Nv_yLh7rca-16">
          <mxGeometry relative="1" as="geometry" />
        </mxCell>
        <mxCell id="Dmuagicg-4Nv_yLh7rca-18" value="" style="group" vertex="1" connectable="0" parent="Dmuagicg-4Nv_yLh7rca-1">
          <mxGeometry x="245" y="70" width="107" height="80" as="geometry" />
        </mxCell>
        <mxCell id="Dmuagicg-4Nv_yLh7rca-19" value="&lt;font style=&quot;font-size: 19px;&quot; face=&quot;Times New Roman&quot;&gt;h-1&lt;/font&gt;" style="text;html=1;strokeColor=none;fillColor=none;align=center;verticalAlign=middle;whiteSpace=wrap;rounded=0;fontSize=11;fontFamily=Helvetica;fontColor=default;" vertex="1" parent="Dmuagicg-4Nv_yLh7rca-18">
          <mxGeometry x="47" y="24" width="60" height="30" as="geometry" />
        </mxCell>
        <mxCell id="Dmuagicg-4Nv_yLh7rca-20" value="" style="group" vertex="1" connectable="0" parent="Dmuagicg-4Nv_yLh7rca-18">
          <mxGeometry width="81" height="80" as="geometry" />
        </mxCell>
        <mxCell id="Dmuagicg-4Nv_yLh7rca-21" value="$$A_R$$" style="rounded=0;whiteSpace=wrap;html=1;" vertex="1" parent="Dmuagicg-4Nv_yLh7rca-20">
          <mxGeometry width="40" height="80" as="geometry" />
        </mxCell>
        <mxCell id="Dmuagicg-4Nv_yLh7rca-22" value="&lt;font style=&quot;font-size: 23px;&quot;&gt;$$ \Bigg \}$$&lt;/font&gt;" style="text;html=1;strokeColor=none;fillColor=none;align=center;verticalAlign=middle;whiteSpace=wrap;rounded=0;fontSize=11;fontFamily=Helvetica;fontColor=default;" vertex="1" parent="Dmuagicg-4Nv_yLh7rca-20">
          <mxGeometry x="21" y="24" width="60" height="30" as="geometry" />
        </mxCell>
        <mxCell id="Dmuagicg-4Nv_yLh7rca-23" style="edgeStyle=none;shape=connector;rounded=0;orthogonalLoop=1;jettySize=auto;html=1;exitX=1;exitY=1;exitDx=0;exitDy=0;entryX=0.5;entryY=0;entryDx=0;entryDy=0;labelBackgroundColor=default;strokeColor=default;align=center;verticalAlign=middle;fontFamily=Helvetica;fontSize=11;fontColor=default;endArrow=none;endFill=0;" edge="1" parent="Dmuagicg-4Nv_yLh7rca-1" source="Dmuagicg-4Nv_yLh7rca-2" target="Dmuagicg-4Nv_yLh7rca-21">
          <mxGeometry relative="1" as="geometry" />
        </mxCell>
        <mxCell id="Dmuagicg-4Nv_yLh7rca-24" value="&lt;span style=&quot;font-size: 19px;&quot;&gt;&lt;font face=&quot;Times New Roman&quot;&gt;(a)&amp;nbsp;&lt;/font&gt;&lt;/span&gt;" style="text;html=1;strokeColor=none;fillColor=none;align=center;verticalAlign=middle;whiteSpace=wrap;rounded=0;fontSize=11;fontFamily=Helvetica;fontColor=default;" vertex="1" parent="Dmuagicg-4Nv_yLh7rca-1">
          <mxGeometry x="175" y="270" width="60" height="30" as="geometry" />
        </mxCell>
        <mxCell id="Dmuagicg-4Nv_yLh7rca-27" style="edgeStyle=none;shape=connector;rounded=0;orthogonalLoop=1;jettySize=auto;html=1;exitX=0;exitY=1;exitDx=0;exitDy=0;entryX=0.5;entryY=0;entryDx=0;entryDy=0;labelBackgroundColor=default;strokeColor=default;align=center;verticalAlign=middle;fontFamily=Helvetica;fontSize=11;fontColor=default;endArrow=none;endFill=0;" edge="1" parent="1" source="Dmuagicg-4Nv_yLh7rca-28">
          <mxGeometry relative="1" as="geometry">
            <mxPoint x="476.9999999999999" y="150" as="targetPoint" />
          </mxGeometry>
        </mxCell>
        <mxCell id="Dmuagicg-4Nv_yLh7rca-28" value="B" style="ellipse;whiteSpace=wrap;html=1;fontFamily=Times New Roman;fontSize=19;fontColor=default;container=0;" vertex="1" parent="1">
          <mxGeometry x="517" y="80" width="40" height="40" as="geometry" />
        </mxCell>
        <mxCell id="Dmuagicg-4Nv_yLh7rca-29" value="&lt;font face=&quot;Times New Roman&quot;&gt;&lt;span style=&quot;font-size: 19px;&quot;&gt;A&lt;/span&gt;&lt;/font&gt;" style="ellipse;whiteSpace=wrap;html=1;aspect=fixed;fontFamily=Helvetica;fontSize=11;fontColor=default;container=0;" vertex="1" parent="1">
          <mxGeometry x="587" y="150" width="40" height="40" as="geometry" />
        </mxCell>
        <mxCell id="Dmuagicg-4Nv_yLh7rca-30" style="edgeStyle=none;shape=connector;rounded=0;orthogonalLoop=1;jettySize=auto;html=1;exitX=1;exitY=1;exitDx=0;exitDy=0;labelBackgroundColor=default;strokeColor=default;align=center;verticalAlign=middle;fontFamily=Helvetica;fontSize=11;fontColor=default;endArrow=none;endFill=0;" edge="1" parent="1" source="Dmuagicg-4Nv_yLh7rca-28" target="Dmuagicg-4Nv_yLh7rca-29">
          <mxGeometry relative="1" as="geometry" />
        </mxCell>
        <mxCell id="Dmuagicg-4Nv_yLh7rca-41" style="edgeStyle=none;shape=connector;rounded=0;orthogonalLoop=1;jettySize=auto;html=1;exitX=0;exitY=1;exitDx=0;exitDy=0;entryX=0.5;entryY=0;entryDx=0;entryDy=0;labelBackgroundColor=default;strokeColor=default;align=center;verticalAlign=middle;fontFamily=Helvetica;fontSize=11;fontColor=default;endArrow=none;endFill=0;" edge="1" parent="1" source="Dmuagicg-4Nv_yLh7rca-29" target="Dmuagicg-4Nv_yLh7rca-39">
          <mxGeometry relative="1" as="geometry" />
        </mxCell>
        <mxCell id="Dmuagicg-4Nv_yLh7rca-47" style="edgeStyle=none;shape=connector;rounded=0;orthogonalLoop=1;jettySize=auto;html=1;exitX=1;exitY=1;exitDx=0;exitDy=0;entryX=0.5;entryY=0;entryDx=0;entryDy=0;labelBackgroundColor=default;strokeColor=default;align=center;verticalAlign=middle;fontFamily=Helvetica;fontSize=11;fontColor=default;endArrow=none;endFill=0;" edge="1" parent="1" source="Dmuagicg-4Nv_yLh7rca-29" target="Dmuagicg-4Nv_yLh7rca-45">
          <mxGeometry relative="1" as="geometry" />
        </mxCell>
        <mxCell id="Dmuagicg-4Nv_yLh7rca-49" value="&lt;span style=&quot;font-size: 19px;&quot;&gt;&lt;font face=&quot;Times New Roman&quot;&gt;(b)&lt;/font&gt;&lt;/span&gt;" style="text;html=1;strokeColor=none;fillColor=none;align=center;verticalAlign=middle;whiteSpace=wrap;rounded=0;fontSize=11;fontFamily=Helvetica;fontColor=default;container=0;" vertex="1" parent="1">
          <mxGeometry x="507" y="350" width="60" height="30" as="geometry" />
        </mxCell>
        <mxCell id="Dmuagicg-4Nv_yLh7rca-32" value="&lt;font style=&quot;font-size: 19px;&quot; face=&quot;Times New Roman&quot;&gt;h&lt;/font&gt;" style="text;html=1;strokeColor=none;fillColor=none;align=center;verticalAlign=middle;whiteSpace=wrap;rounded=0;fontSize=11;fontFamily=Helvetica;fontColor=default;container=0;" vertex="1" parent="1">
          <mxGeometry x="387.5" y="194" width="60" height="30" as="geometry" />
        </mxCell>
        <mxCell id="Dmuagicg-4Nv_yLh7rca-33" value="&lt;font style=&quot;font-size: 34px;&quot;&gt;$$ \Bigg \{$$&lt;/font&gt;" style="text;html=1;strokeColor=none;fillColor=none;align=center;verticalAlign=middle;whiteSpace=wrap;rounded=0;fontSize=11;fontFamily=Helvetica;fontColor=default;container=0;" vertex="1" parent="1">
          <mxGeometry x="412" y="195" width="60" height="30" as="geometry" />
        </mxCell>
        <mxCell id="Dmuagicg-4Nv_yLh7rca-35" value="&lt;font style=&quot;font-size: 12px;&quot;&gt;$$B_L$$&lt;/font&gt;" style="rounded=0;whiteSpace=wrap;html=1;direction=west;fontFamily=Helvetica;fontSize=11;fontColor=default;container=0;" vertex="1" parent="1">
          <mxGeometry x="456" y="150" width="40" height="80" as="geometry" />
        </mxCell>
        <mxCell id="Dmuagicg-4Nv_yLh7rca-48" value="" style="rounded=0;whiteSpace=wrap;html=1;fontFamily=Helvetica;fontSize=11;fontColor=default;fillStyle=auto;fillColor=#525252;gradientColor=none;container=0;" vertex="1" parent="1">
          <mxGeometry x="456" y="230" width="40" height="40" as="geometry" />
        </mxCell>
        <mxCell id="Dmuagicg-4Nv_yLh7rca-37" value="&lt;font style=&quot;font-size: 19px;&quot; face=&quot;Times New Roman&quot;&gt;h-1&lt;/font&gt;" style="text;html=1;strokeColor=none;fillColor=none;align=center;verticalAlign=middle;whiteSpace=wrap;rounded=0;fontSize=11;fontFamily=Helvetica;fontColor=default;container=0;" vertex="1" parent="1">
          <mxGeometry x="584" y="254" width="60" height="30" as="geometry" />
        </mxCell>
        <mxCell id="Dmuagicg-4Nv_yLh7rca-39" value="$$B_R$$" style="rounded=0;whiteSpace=wrap;html=1;container=0;" vertex="1" parent="1">
          <mxGeometry x="537" y="230" width="40" height="80" as="geometry" />
        </mxCell>
        <mxCell id="Dmuagicg-4Nv_yLh7rca-40" value="&lt;font style=&quot;font-size: 23px;&quot;&gt;$$ \Bigg \}$$&lt;/font&gt;" style="text;html=1;strokeColor=none;fillColor=none;align=center;verticalAlign=middle;whiteSpace=wrap;rounded=0;fontSize=11;fontFamily=Helvetica;fontColor=default;container=0;" vertex="1" parent="1">
          <mxGeometry x="558" y="254" width="60" height="30" as="geometry" />
        </mxCell>
        <mxCell id="Dmuagicg-4Nv_yLh7rca-43" value="&lt;font style=&quot;font-size: 19px;&quot; face=&quot;Times New Roman&quot;&gt;h-1&lt;/font&gt;" style="text;html=1;strokeColor=none;fillColor=none;align=center;verticalAlign=middle;whiteSpace=wrap;rounded=0;fontSize=11;fontFamily=Helvetica;fontColor=default;container=0;" vertex="1" parent="1">
          <mxGeometry x="684" y="254" width="60" height="30" as="geometry" />
        </mxCell>
        <mxCell id="Dmuagicg-4Nv_yLh7rca-45" value="$$A_R$$" style="rounded=0;whiteSpace=wrap;html=1;container=0;" vertex="1" parent="1">
          <mxGeometry x="637" y="230" width="40" height="80" as="geometry" />
        </mxCell>
        <mxCell id="Dmuagicg-4Nv_yLh7rca-46" value="&lt;font style=&quot;font-size: 23px;&quot;&gt;$$ \Bigg \}$$&lt;/font&gt;" style="text;html=1;strokeColor=none;fillColor=none;align=center;verticalAlign=middle;whiteSpace=wrap;rounded=0;fontSize=11;fontFamily=Helvetica;fontColor=default;container=0;" vertex="1" parent="1">
          <mxGeometry x="658" y="254" width="60" height="30" as="geometry" />
        </mxCell>
      </root>
    </mxGraphModel>
  </diagram>
</mxfile>
